# xmcd
#
# Track frame offsets:
#	150
#	14912
#	31187
#	46670
#	65775
#	79522
#	95675
#	111692
#	125585
#	140310
#
# Disc length: 2096 seconds
#
# Revision: 2
# Processed by: cddbd v1.5.1PL2 Copyright (c) Steve Scherf et al.
# Submitted via: audiograbber 1.83.01
#
DISCID=8c082e0a
DTITLE=SmokeHouse - Let's Swamp Awhile
DYEAR=1991
DGENRE=Blues
TTITLE0=It's Going On'
TTITLE1=Braggin' 'Bout You Baby
TTITLE2=Big Mistake
TTITLE3=Fork In The Road
TTITLE4=Sweet Little Woman
TTITLE5=I Didn't Know
TTITLE6=Poontang Blues
TTITLE7=Evil Woman
TTITLE8=Skin It Back
TTITLE9=The Day Jack Frost Killed Parson Brown
EXTD=
EXTT0=
EXTT1=
EXTT2=
EXTT3=
EXTT4=
EXTT5=
EXTT6=
EXTT7=
EXTT8=
EXTT9=
PLAYORDER=
